# xmcd
#
# Track frame offsets:
#	150
#	15780
#	43568
#	70366
#	95329
#	125968
#	137791
#	169694
#	189939
#	217418
#	234095
#	249744
#	281512
#	312605
#	330730
#	345537
#
# Disc length: 4807 seconds
#
# Revision: 0
# Processed by: cddbd v1.4PL0 Copyright (c) Steve Scherf et al.
# Submitted via: audiograbber 1.81.01
#
DISCID=ed12c510
DTITLE=madonna - like a virgin
DYEAR=1900
DGENRE=
TTITLE0=Potatoheads - Mix The Master
TTITLE1=Dj's -@ Work - Time To Wonder (Ext)
TTITLE2=ATB - Youre Not Alone
TTITLE3=Dj Aligator - Stomp (The March Song)
TTITLE4=Dj QuickSilver - Belissima 2002
TTITLE5=Woody Van Yden - Together (radio mix)
TTITLE6=770 - Freed From Desire 2002 (Original Club Mix)
TTITLE7=Voodoo and Serano - When I Rock [CJ Stone Atmosphe Mix) 22
TTITLE8=Norman Bass - Jack To The Sound
TTITLE9=SQ-1 - Dance (Airplay Mix)
TTITLE10=Interactive - Forever Young  (Kosmonova Radio Edit)
TTITLE11=DJ Valium - Bring The Beat Back (axel conrad mix)
TTITLE12=Rocco - Everybody  (Klubbingman Remix)
TTITLE13=Lasgo - Alone
TTITLE14=E-Ject - Hard To Say I'm Sorry
TTITLE15=Dj Boozy Woozy - Party Affair
EXTD=
EXTT0=
EXTT1=
EXTT2=
EXTT3=
EXTT4=
EXTT5=
EXTT6=
EXTT7=
EXTT8=
EXTT9=
EXTT10=
EXTT11=
EXTT12=
EXTT13=
EXTT14=
EXTT15=
PLAYORDER=
